<?xml version="1.0" encoding="utf-8"?><svg viewBox="0 0 26 26" xmlns="http://www.w3.org/2000/svg" xmlns:xlink="http://www.w3.org/1999/xlink"><style>:root>svg{display:none}:root>svg:target{display:block}</style><svg viewBox="0 0 18 18" id="assets" xmlns="http://www.w3.org/2000/svg"><path d="M15.188 8.542H11.52a2.065 2.065 0 0 1-2.063-2.063V2.812c0-1.137.926-2.062 2.063-2.062h3.666c1.138 0 2.063.925 2.063 2.063v3.666a2.065 2.065 0 0 1-2.063 2.063Zm-8.709 0H2.812A2.065 2.065 0 0 1 .75 6.479V2.812C.75 1.675 1.675.75 2.813.75h3.666c1.137 0 2.063.925 2.063 2.063v3.666a2.065 2.065 0 0 1-2.063 2.063Zm8.709 8.708H11.52a2.065 2.065 0 0 1-2.063-2.063v-3.666c0-1.137.926-2.063 2.063-2.063h3.666c1.138 0 2.063.926 2.063 2.063v3.666a2.065 2.065 0 0 1-2.063 2.063Zm-8.709 0H2.812A2.065 2.065 0 0 1 .75 15.187v-3.666c0-1.137.925-2.063 2.063-2.063h3.666c1.137 0 2.063.926 2.063 2.063v3.666a2.065 2.065 0 0 1-2.063 2.063Z"/></svg><svg viewBox="0 0 26 26" id="bet-token" xmlns="http://www.w3.org/2000/svg"><path d="m7.954 10.925 5.049-5.049 5.052 5.052 2.938-2.938L13.003 0 5.016 7.987l2.938 2.938ZM5.875 13l-2.938-2.938L0 13l2.938 2.938 2.938-2.939ZM7.95 15.074 13 20.123l5.05-5.052 2.94 2.937v.001L13 26l-7.988-7.987-.004-.004 2.942-2.934ZM23.062 15.939 26 13.001l-2.938-2.938-2.938 2.938 2.938 2.938Z"/><path d="M15.978 12.998h.002l-2.982-2.981-2.203 2.203-.253.253-.522.522-.004.004.004.005 2.978 2.978 2.982-2.981.001-.002-.003-.001Z"/></svg><svg viewBox="0 0 23 21" id="close-recom" xmlns="http://www.w3.org/2000/svg"><path d="M2.604.333A2.44 2.44 0 0 0 .166 2.771v12.458a2.44 2.44 0 0 0 2.438 2.438h7.856a7.003 7.003 0 0 1-.452-1.625H2.604a.814.814 0 0 1-.813-.813V2.771c0-.448.365-.813.813-.813h4.09c.317 0 .624.111.867.313l2.647 2.207c.146.122.33.189.52.189h8.667c.448 0 .813.364.813.812v3.238a7.08 7.08 0 0 1 1.625 1.172v-4.41a2.44 2.44 0 0 0-2.438-2.437h-8.372L8.6 1.023a2.986 2.986 0 0 0-1.906-.69H2.604ZM16.958 9a5.958 5.958 0 1 0 0 11.917 5.958 5.958 0 0 0 0-11.917Zm-2.709 2.708a.54.54 0 0 1 .383.159l2.326 2.325 2.325-2.325a.541.541 0 1 1 .766.766l-2.325 2.325 2.325 2.326a.541.541 0 1 1-.766.766l-2.325-2.326-2.326 2.326a.54.54 0 0 1-.766 0 .541.541 0 0 1 0-.766l2.326-2.326-2.326-2.325a.541.541 0 0 1 .383-.925Z"/></svg><svg viewBox="0 0 16 26" id="erc-token" xmlns="http://www.w3.org/2000/svg"><path d="m7.999 0-.175.592V17.78l.175.174 7.997-4.716L8 0Z"/><path d="M7.998 0 0 13.238l7.998 4.716V0ZM7.997 19.465l-.099.12v6.122l.099.287 8.002-11.243-8.002 4.714Z"/><path d="M7.998 25.994v-6.53L0 14.752l7.998 11.243ZM7.996 17.954l7.998-4.716L7.996 9.61v8.343Z"/><path d="m0 13.239 7.997 4.716V9.612L0 13.24Z"/></svg><svg viewBox="0 0 20 20" id="image" xmlns="http://www.w3.org/2000/svg"><path d="M3.23.25A2.992 2.992 0 0 0 .25 3.23v13.54a2.992 2.992 0 0 0 2.98 2.98h13.54a2.992 2.992 0 0 0 2.98-2.98V3.23A2.992 2.992 0 0 0 16.77.25H3.23Zm0 1.625h13.54c.758 0 1.355.597 1.355 1.354v13.542c0 .072-.01.14-.021.21l-6.58-6.366A2.186 2.186 0 0 0 10 10.003c-.551 0-1.102.204-1.523.612l-6.58 6.365c-.011-.068-.022-.137-.022-.21V3.23c0-.758.597-1.355 1.354-1.355Zm10.29 2.167c-.744 0-1.405.308-1.825.78a2.48 2.48 0 0 0-.612 1.657c0 .587.192 1.185.612 1.657s1.081.78 1.826.78c.745 0 1.406-.308 1.826-.78.42-.472.611-1.07.611-1.657s-.191-1.184-.611-1.657c-.42-.472-1.081-.78-1.826-.78Zm0 1.625c.34 0 .49.097.612.235a.89.89 0 0 1 .201.577.89.89 0 0 1-.2.578c-.123.137-.274.235-.612.235-.339 0-.49-.098-.612-.235a.89.89 0 0 1-.2-.578c0-.226.078-.44.2-.577.122-.138.273-.235.612-.235Zm-3.519 5.952c.14 0 .28.054.394.164l6.539 6.326c-.054.006-.107.016-.163.016H3.229c-.056 0-.109-.01-.163-.016l6.54-6.326a.566.566 0 0 1 .395-.164Z"/></svg><svg viewBox="0 0 18 18" id="point" xmlns="http://www.w3.org/2000/svg"><path d="M4.066 17.388.619 13.94a.812.812 0 0 1 0-1.149L8.47 4.94 5.598 2.067A.813.813 0 0 1 6.129.68L17.05.101c.46-.024.88.395.855.855l-.58 10.92a.812.812 0 0 1-1.386.532l-2.872-2.872-7.852 7.852a.812.812 0 0 1-1.15 0Z"/></svg><svg viewBox="0 0 25 12" id="rise" xmlns="http://www.w3.org/2000/svg"><path d="M15.38 7.134 10.197 2.18a1.57 1.57 0 0 0-1.084-.43 1.57 1.57 0 0 0-1.084.43L.979 8.916c-.147.136-.266.3-.349.483a1.461 1.461 0 0 0 .33 1.67 1.586 1.586 0 0 0 2.187-.018l5.965-5.7 5.184 4.955c.292.278.682.43 1.085.43a1.57 1.57 0 0 0 1.084-.43l4.945-4.727v.91c-.002.2.037.399.115.583.078.186.193.354.338.494.145.14.316.25.503.326a1.587 1.587 0 0 0 1.681-.326 1.46 1.46 0 0 0 .453-1.078v-4.49c0-.404-.169-.788-.46-1.067a1.57 1.57 0 0 0-1.085-.43h-4.698a1.587 1.587 0 0 0-1.095.423 1.498 1.498 0 0 0-.345.489 1.46 1.46 0 0 0 .345 1.66c.147.139.32.247.508.319.187.072.386.107.587.105h.93L15.38 7.134Z"/></svg><svg viewBox="0 0 24 20" id="solana-token" xmlns="http://www.w3.org/2000/svg"><g clip-path="url(#ha)"><path d="M3.9 15.002a.781.781 0 0 1 .555-.232h19.154c.35 0 .525.427.278.677l-3.784 3.822a.781.781 0 0 1-.555.231H.393c-.35 0-.525-.427-.277-.676L3.9 15.002ZM3.9.732A.803.803 0 0 1 4.455.5h19.154c.35 0 .525.427.278.677l-3.784 3.822a.781.781 0 0 1-.555.231H.393c-.35 0-.525-.427-.277-.676L3.9.732ZM20.103 7.821a.781.781 0 0 0-.555-.232H.393c-.35 0-.525.427-.277.677L3.9 12.088a.781.781 0 0 0 .555.232h19.154c.35 0 .525-.427.278-.677L20.103 7.82Z"/></g><defs><clipPath id="ha"><path transform="translate(0 .5)" d="M0 0h24v19H0z"/></clipPath></defs></svg><svg viewBox="0 0 20 18" id="text" xmlns="http://www.w3.org/2000/svg"><path d="M1.333.333a1.083 1.083 0 1 0 0 2.167h17.334a1.083 1.083 0 1 0 0-2.167H1.332Zm0 3.792a1.083 1.083 0 1 0 0 2.167h17.334a1.084 1.084 0 1 0 0-2.167H1.332Zm0 3.792a1.083 1.083 0 1 0 0 2.166h17.334a1.083 1.083 0 1 0 0-2.166H1.332Zm0 3.791a1.083 1.083 0 1 0 0 2.167h17.334a1.083 1.083 0 1 0 0-2.167H1.332Zm0 3.792a1.083 1.083 0 1 0 0 2.167h11.375a1.084 1.084 0 1 0 0-2.167H1.333Z"/></svg><svg viewBox="0 0 22 22" id="update" xmlns="http://www.w3.org/2000/svg"><path d="M11.001.167C5.028.167.168 5.027.168 11c0 5.974 4.86 10.833 10.833 10.833 5.974 0 10.834-4.86 10.834-10.833S16.975.167 11 .167Zm0 1.625A9.196 9.196 0 0 1 20.21 11 9.196 9.196 0 0 1 11 20.208 9.196 9.196 0 0 1 1.793 11a9.196 9.196 0 0 1 9.208-9.208Zm-.012 3.78a.812.812 0 0 0-.8.824v3.792H6.397a.812.812 0 1 0 0 1.625h3.792v3.791a.814.814 0 0 0 1.566.315c.04-.1.06-.207.059-.315v-3.791h3.791a.814.814 0 1 0 0-1.625h-3.791V6.396a.81.81 0 0 0-.825-.824Z"/></svg></svg>