<svg width="94" height="62" viewBox="0 0 94 62" fill="none" xmlns="http://www.w3.org/2000/svg">
<path d="M30.5859 11.2086L22.016 55.2202L20.9023 60.9819L78.0352 60.7156C80.6013 60.6914 82.8769 58.4158 83.7 55.0507L93.8435 13.5084C94.4729 10.9423 93.0931 8.2793 91.1563 8.2793L33.3215 8.35192C32.0384 8.30351 30.9006 9.48974 30.5859 11.2086Z" fill="#CCD3DD"/>
<path d="M72.5665 52.2426L66.5142 3.48607C66.2722 1.47674 64.6744 0 62.7861 0L49.5197 0.0484169C48.5271 0.0484169 47.6072 0.459968 46.9051 1.21044L40.6108 7.91628L3.71656 8.10995C1.46514 8.10995 -0.27789 10.2645 0.0368242 12.6612L5.65327 57.738C5.89536 59.7232 7.49314 61.2241 9.35722 61.2241L73.6558 61.1031C80.8217 61.2483 81.4995 59.1422 81.4995 59.1422C73.2927 60.9094 72.5665 52.2426 72.5665 52.2426Z" fill="white"/>
<g opacity="0.5">
<path d="M44.8235 42.4863L42.6689 44.8104L25.9648 29.8009L28.1194 27.4526L44.8235 42.4863Z" fill="#AAB3C0"/>
<path d="M41.7508 26.9443L44.1475 29.0989L29.0412 45.343L26.6445 43.1885L41.7508 26.9443Z" fill="#AAB3C0"/>
</g>
</svg>
