<svg width="73" height="73" viewBox="0 0 73 73" fill="none" xmlns="http://www.w3.org/2000/svg">
<path d="M64.6246 15.4265H49.9556C49.0491 15.4265 48.1933 15.015 47.6268 14.3069L44.6465 10.5826C44.0814 9.87438 43.2241 9.46289 42.3191 9.46289H30.2771C29.3706 9.46289 28.5148 9.87438 27.9483 10.5826L24.9665 14.3069C24.4014 15.015 23.5441 15.4265 22.6392 15.4265H7.9701C6.32264 15.4265 4.98828 16.7609 4.98828 18.4083V58.6629C4.98828 60.3103 6.32264 61.6447 7.9701 61.6447H64.6246C66.2721 61.6447 67.6065 60.3103 67.6065 58.6629V18.4083C67.6065 16.7609 66.2721 15.4265 64.6246 15.4265Z" fill="white"/>
<path d="M36.2991 58.6632C47.4151 58.6632 56.4264 49.6519 56.4264 38.536C56.4264 27.42 47.4151 18.4087 36.2991 18.4087C25.1832 18.4087 16.1719 27.42 16.1719 38.536C16.1719 49.6519 25.1832 58.6632 36.2991 58.6632Z" fill="#DEE2E8"/>
<path d="M36.2984 54.1901C45.3559 54.1901 52.6984 46.8476 52.6984 37.7901C52.6984 28.7327 45.3559 21.3901 36.2984 21.3901C27.241 21.3901 19.8984 28.7327 19.8984 37.7901C19.8984 46.8476 27.241 54.1901 36.2984 54.1901Z" fill="white"/>
<path d="M36.2984 49.7173C42.8856 49.7173 48.2256 44.3773 48.2256 37.7901C48.2256 31.2028 42.8856 25.8628 36.2984 25.8628C29.7111 25.8628 24.3711 31.2028 24.3711 37.7901C24.3711 44.3773 29.7111 49.7173 36.2984 49.7173Z" fill="#37E556"/>
<path d="M58.6615 27.3538C60.3083 27.3538 61.6433 26.0188 61.6433 24.372C61.6433 22.7251 60.3083 21.3901 58.6615 21.3901C57.0147 21.3901 55.6797 22.7251 55.6797 24.372C55.6797 26.0188 57.0147 27.3538 58.6615 27.3538Z" fill="#CCD3DD"/>
<path d="M21.3895 15.4266H10.9531V13.9357C10.9531 13.1128 11.6211 12.4448 12.444 12.4448H19.8986C20.7216 12.4448 21.3895 13.1128 21.3895 13.9357V15.4266Z" fill="#37E556"/>
<rect x="4.80859" y="66.8726" width="85.4475" height="5.00945" transform="rotate(-45 4.80859 66.8726)" fill="#CCD3DD"/>
</svg>
